<svg id="Capa_1" data-name="Capa 1" xmlns="http://www.w3.org/2000/svg" viewBox="0 0 512 512"><defs><style>.cls-1{fill:#ffb64d;}.cls-2{fill:#ffc988;}.cls-3{fill:#ffeb96;}.cls-4{fill:#fff4ca;}.cls-5{fill:#fc819c;}.cls-6{fill:#d36b16;}.cls-7{fill:#63cec1;}.cls-8{fill:#5bbaac;}.cls-9{fill:#f27293;}</style></defs><title>logo</title><path class="cls-1" d="M512,256q0,3.88-.11,7.73A255.08,255.08,0,0,1,442.4,431.47q-5.3,5.63-10.93,10.93a255.14,255.14,0,0,1-167.74,69.49q-3.85.11-7.73.11t-7.73-.11A255.14,255.14,0,0,1,80.53,442.4q-5.62-5.3-10.93-10.93A255.14,255.14,0,0,1,.11,263.73Q0,259.88,0,256t.11-7.73A255.14,255.14,0,0,1,69.6,80.53Q74.9,74.9,80.53,69.6A255.14,255.14,0,0,1,248.27.11Q252.12,0,256,0t7.73.11A255.14,255.14,0,0,1,431.47,69.6q5.63,5.3,10.93,10.93a255.09,255.09,0,0,1,69.49,167.74Q512,252.12,512,256Z"/><circle class="cls-2" cx="256" cy="256" r="235.32"/><path class="cls-1" d="M512,256q0,3.88-.11,7.73H361.59a7.73,7.73,0,1,1,0-15.45H511.89Q512,252.12,512,256Z"/><path class="cls-3" d="M438.57,256q0,3.88-.17,7.73a181.89,181.89,0,0,1-48,115.79q-5.24,5.69-10.93,10.93a181.9,181.9,0,0,1-115.79,48q-3.85.17-7.73.17t-7.73-.17a181.89,181.89,0,0,1-115.79-48q-5.69-5.24-10.93-10.93a181.89,181.89,0,0,1-48-115.79q-.17-3.85-.17-7.73t.17-7.73a181.89,181.89,0,0,1,48-115.79q5.24-5.69,10.93-10.93a181.9,181.9,0,0,1,115.79-48q3.85-.17,7.73-.17t7.73.17a181.89,181.89,0,0,1,115.79,48q5.69,5.24,10.93,10.93a181.9,181.9,0,0,1,48,115.79Q438.57,252.12,438.57,256Z"/><circle class="cls-4" cx="256" cy="256" r="158.48"/><path class="cls-3" d="M438.57,256q0,3.88-.17,7.73H361.59a7.73,7.73,0,1,1,0-15.45H438.4Q438.57,252.12,438.57,256Z"/><path class="cls-1" d="M274.66,263.73,442.4,431.47q-5.3,5.63-10.93,10.93L263.73,274.66V511.89q-3.85.11-7.73.11t-7.73-.11V274.66L80.53,442.4q-5.62-5.3-10.93-10.93L237.34,263.73H.11Q0,259.88,0,256t.11-7.73H237.34L69.6,80.53Q74.9,74.9,80.53,69.6L248.27,237.34V.11Q252.12,0,256,0t7.73.11V237.34L431.47,69.6q5.63,5.3,10.93,10.93L274.66,248.27h54.49a7.73,7.73,0,1,1,0,15.45Z"/><path class="cls-3" d="M274.66,263.73,390.45,379.52q-5.24,5.69-10.93,10.93L263.73,274.66V438.4q-3.85.17-7.73.17t-7.73-.17V274.66L132.48,390.45q-5.69-5.24-10.93-10.93L237.34,263.73H73.6q-.17-3.85-.17-7.73t.17-7.73H237.34L121.55,132.48q5.24-5.69,10.93-10.93L248.27,237.34V73.6q3.85-.17,7.73-.17t7.73.17V237.34L379.52,121.55q5.69,5.24,10.93,10.93L274.66,248.27h54.49a7.73,7.73,0,1,1,0,15.45H274.66Z"/><circle class="cls-5" cx="386.62" cy="206.26" r="18.97"/><path class="cls-5" d="M273,151.6a32.5,32.5,0,1,1-9.32-22.79A32.42,32.42,0,0,1,273,151.6Z"/><circle class="cls-6" cx="139.75" cy="214.12" r="11.52"/><circle class="cls-5" cx="296.92" cy="397.15" r="11.52"/><circle class="cls-5" cx="112.59" cy="290.52" r="11.52"/><path class="cls-7" d="M188.6,360.15a9.56,9.56,0,0,1-1.08.05,10.4,10.4,0,0,1-10.34-9.35l-.47-4.61-2-19.83-1.79-17.51a10.43,10.43,0,0,1,9.31-11.42,9.49,9.49,0,0,1,1.07-.05,10.42,10.42,0,0,1,10.35,9.36l.06.62,2,19.83,2.19,21.5A10.41,10.41,0,0,1,188.6,360.15Z"/><path class="cls-7" d="M179.31,190.24l-.21,0a9.49,9.49,0,0,1-1.07.05A10.41,10.41,0,0,1,167.68,181l-.27-2.62L164.92,154l-1.54-15a10.43,10.43,0,0,1,9.31-11.43,9.48,9.48,0,0,1,1.07-.05,10.42,10.42,0,0,1,10.35,9.36l4.14,40.45.15,1.5A10.43,10.43,0,0,1,179.31,190.24Z"/><path class="cls-7" d="M351.06,291.5l41.27-8.65a10.42,10.42,0,0,1,12.34,8.06h0a10.42,10.42,0,0,1-8.06,12.34l-41.27,8.65A10.42,10.42,0,0,1,343,303.84h0A10.42,10.42,0,0,1,351.06,291.5Z"/><path class="cls-6" d="M315.75,367.57a7.71,7.71,0,0,1-5.46-2.26l-1.09-1.09a7.73,7.73,0,1,1,10.93-10.93l1.09,1.09a7.73,7.73,0,0,1-5.46,13.19Z"/><path class="cls-6" d="M334,227.38a7.7,7.7,0,0,1-5.46-2.26L327.43,224a7.73,7.73,0,1,1,10.92-10.93l1.09,1.09A7.73,7.73,0,0,1,334,227.38Z"/><path class="cls-6" d="M284.2,341.54a7.71,7.71,0,0,1-5.46-2.26l-1.09-1.09a7.73,7.73,0,0,1,10.93-10.93l1.09,1.09a7.73,7.73,0,0,1-5.46,13.19Z"/><path class="cls-6" d="M146.3,299.34a7.7,7.7,0,0,1-5.46-2.26L139.74,296a7.73,7.73,0,1,1,10.93-10.93l1.09,1.09a7.73,7.73,0,0,1-5.46,13.19Z"/><path class="cls-6" d="M308.15,146.12a7.7,7.7,0,0,1-5.47-2.27l-1.09-1.09a7.73,7.73,0,1,1,10.93-10.92l1.09,1.09a7.73,7.73,0,0,1-5.47,13.19Z"/><path class="cls-6" d="M219.4,382.66a7.7,7.7,0,0,1-5.46-2.27l-1.09-1.09a7.73,7.73,0,0,1,10.93-10.92l1.09,1.09a7.73,7.73,0,0,1-5.47,13.19Z"/><path class="cls-8" d="M179.31,190.24l-11.9-11.9L164.92,154l23.34,23.34.15,1.5A10.43,10.43,0,0,1,179.31,190.24Z"/><polygon class="cls-8" points="195.7 327.23 176.7 346.23 174.67 326.4 193.67 307.4 195.7 327.23"/><path class="cls-9" d="M263.73,128.81V174.4a32.49,32.49,0,0,1-15.45,8.79V120A32.49,32.49,0,0,1,263.73,128.81Z"/></svg>