<svg id="Capa_1" data-name="Capa 1" xmlns="http://www.w3.org/2000/svg" viewBox="0 0 512 506.77"><defs><style>.cls-1{fill:#fff;}</style></defs><title>basket</title><path class="cls-1" d="M489.46,161.13H377.92L303.17,8.66a10.17,10.17,0,0,0-14.24-4.75,10.17,10.17,0,0,0-4.75,14.24l70,143.57h-197l70-143.57c2.37-5.34.59-11.87-4.75-14.24s-11.87-.59-14.24,4.75L133.49,161.72H22.54A22.53,22.53,0,0,0,0,184.27V240a22.53,22.53,0,0,0,22.54,22.54h26.1V457.77c0,32,19.58,51.62,51.62,51.62H411.74c32,0,51.62-19.58,51.62-51.62V262h26.1A22.53,22.53,0,0,0,512,239.44V183.67A22.53,22.53,0,0,0,489.46,161.13ZM442,457.77Q442,488,411.74,488H99.67q-30.26,0-30.26-30.26V263.17A1.28,1.28,0,0,1,70.6,262H440.21c1.19,0,1.78.59,1.78,1.19ZM490,240a1.28,1.28,0,0,1-1.19,1.19H22.54A1.28,1.28,0,0,1,21.36,240V184.27a1.28,1.28,0,0,1,1.19-1.19H122.81L110.94,207.4c-2.37,5.34-.59,11.87,4.75,14.24,1.78.59,3,1.19,4.75,1.19a10.57,10.57,0,0,0,9.49-5.93l16.61-33.82H364.87l16.61,33.82a10.57,10.57,0,0,0,9.49,5.93c1.78,0,3-.59,4.75-1.19a10.17,10.17,0,0,0,4.75-14.24L388.6,183.08H488.86a1.28,1.28,0,0,1,1.19,1.19V240Z" transform="translate(0 -2.62)"/><path class="cls-1" d="M127.56,286.31A10.63,10.63,0,0,0,116.88,297V424c0,6.53,4.75,11.27,10.68,11.27a10.63,10.63,0,0,0,10.68-10.68V297A10.63,10.63,0,0,0,127.56,286.31Z" transform="translate(0 -2.62)"/><path class="cls-1" d="M191.63,286.31A10.63,10.63,0,0,0,181,297V424c.59,6.53,5.34,11.27,10.68,11.27a10.63,10.63,0,0,0,10.68-10.68V297A10.63,10.63,0,0,0,191.63,286.31Z" transform="translate(0 -2.62)"/><path class="cls-1" d="M256.3,286.31A10.63,10.63,0,0,0,245.62,297V424c0,6.53,4.75,11.27,10.68,11.27A10.63,10.63,0,0,0,267,424.54V297A10.63,10.63,0,0,0,256.3,286.31Z" transform="translate(0 -2.62)"/><path class="cls-1" d="M320.37,286.31A10.63,10.63,0,0,0,309.69,297V424c0,6.53,4.75,11.27,10.68,11.27A10.63,10.63,0,0,0,331,424.54V297A10.63,10.63,0,0,0,320.37,286.31Z" transform="translate(0 -2.62)"/><path class="cls-1" d="M384.44,286.31A10.63,10.63,0,0,0,373.77,297V424c.59,6.53,5.34,11.27,10.68,11.27a10.63,10.63,0,0,0,10.68-10.68V297A10.63,10.63,0,0,0,384.44,286.31Z" transform="translate(0 -2.62)"/></svg>