<svg id="Capa_1" data-name="Capa 1" xmlns="http://www.w3.org/2000/svg" viewBox="0 0 512 443.73"><defs><style>.cls-1{fill:#fff;}</style></defs><title>contacts</title><path class="cls-1" d="M446.21,377.94a8.92,8.92,0,0,0-2.47,6.06,8.59,8.59,0,0,0,2.47,6.06,8.57,8.57,0,1,0,0-12.12Z" transform="translate(0 -34.13)"/><path class="cls-1" d="M201.71,360.64l-31-15.85v-3.3c13.89-7.59,23.66-20.09,29.12-37.25a25.36,25.36,0,0,0,13.55-22.49v-8.53a25.45,25.45,0,0,0-9.82-20.05c-5.32-32.26-27.84-48.61-67-48.61-1.85,0-3.66.08-5.43.21-7.38.57-18.17,0-27.51-6.32a34.49,34.49,0,0,1-7.83-6.79,10.23,10.23,0,0,0-18.21,7.5c.36,3.17.9,6.89,1.71,11,1.65,8.32,1.65,8.32-.67,13.29-.87,1.89-1.95,4.18-3.21,7.28a95,95,0,0,0-6,22.58,25.46,25.46,0,0,0-9.68,19.94v8.53a25.38,25.38,0,0,0,13.55,22.49c5.45,17.17,15.22,29.67,29.12,37.25v3.21L70.23,360.55a36.52,36.52,0,0,0-19,32.08v11.3c0,6.85,0,22.89,85.33,22.89s85.33-16,85.33-22.89V393.31A36.35,36.35,0,0,0,201.71,360.64ZM204.8,402c-5.32,3.23-27,7.75-68.27,7.75s-63-4.51-68.27-7.75v-9.38a19.35,19.35,0,0,1,9.82-16.92L111,359.48a15.17,15.17,0,0,0,8.46-13.55V330.54l-5.15-2.23c-12.95-5.56-21.36-16.2-25.73-32.55l-1.22-4.54-4.49-1.4a8.6,8.6,0,0,1-6.08-8.07v-8.53a8.53,8.53,0,0,1,4.62-7.48l4-2.13.47-4.51a80,80,0,0,1,5.31-21.93c1.13-2.77,2.1-4.85,2.88-6.55,2.89-6.22,3.94-9.43,3.22-16,10,5.73,22.08,8.18,35.17,7.19,1.32-.11,2.68-.17,4.07-.17,31.95,0,47.55,11.57,50.59,37.54l.53,4.46,4,2.09a8.52,8.52,0,0,1,4.63,7.5v8.53a8.59,8.59,0,0,1-6.08,8.07l-4.49,1.4-1.22,4.54c-4.37,16.34-12.78,27-25.73,32.55l-5.15,2.23V346a15.05,15.05,0,0,0,8.23,13.44L194,375.86l.06,0a19.37,19.37,0,0,1,10.76,17.42Z" transform="translate(0 -34.13)"/><path class="cls-1" d="M264.53,247.62h85.33a8.53,8.53,0,0,0,0-17.07H264.53a8.53,8.53,0,0,0,0,17.07Z" transform="translate(0 -34.13)"/><path class="cls-1" d="M273.07,375.62h-8.53a8.53,8.53,0,0,0,0,17.07h8.53a8.53,8.53,0,0,0,0-17.07Z" transform="translate(0 -34.13)"/><path class="cls-1" d="M324.27,375.62H307.2a8.53,8.53,0,1,0,0,17.07h17.07a8.53,8.53,0,0,0,0-17.07Z" transform="translate(0 -34.13)"/><path class="cls-1" d="M366.93,375.62H358.4a8.53,8.53,0,0,0,0,17.07h8.53a8.53,8.53,0,0,0,0-17.07Z" transform="translate(0 -34.13)"/><path class="cls-1" d="M418.13,375.62H401.07a8.53,8.53,0,0,0,0,17.07h17.07a8.53,8.53,0,0,0,0-17.07Z" transform="translate(0 -34.13)"/><path class="cls-1" d="M452.27,281.75H264.53a8.53,8.53,0,0,0,0,17.07H452.27a8.53,8.53,0,0,0,0-17.07Z" transform="translate(0 -34.13)"/><path class="cls-1" d="M452.27,333H264.53a8.53,8.53,0,0,0,0,17.07H452.27a8.53,8.53,0,0,0,0-17.07Z" transform="translate(0 -34.13)"/><path class="cls-1" d="M472.08,119.47H315.73V53.87A19.75,19.75,0,0,0,296,34.13H216a19.75,19.75,0,0,0-19.73,19.74v65.6H39.92A40,40,0,0,0,0,159.39V438a40,40,0,0,0,39.92,39.91H472.09A40,40,0,0,0,512,437.95V159.39A40,40,0,0,0,472.08,119.47ZM213.33,53.87A2.68,2.68,0,0,1,216,51.2h80a2.68,2.68,0,0,1,2.67,2.67V168a2.68,2.68,0,0,1-2.67,2.66H216a2.68,2.68,0,0,1-2.66-2.66V53.87Zm281.6,384.08a22.87,22.87,0,0,1-22.85,22.85H39.92a22.87,22.87,0,0,1-22.85-22.85V159.39a22.87,22.87,0,0,1,22.85-22.85H196.27V168A19.75,19.75,0,0,0,216,187.73h80A19.75,19.75,0,0,0,315.73,168V136.53H472.08a22.87,22.87,0,0,1,22.85,22.85Z" transform="translate(0 -34.13)"/><path class="cls-1" d="M256,128a34.13,34.13,0,1,0-34.13-34.13A34.17,34.17,0,0,0,256,128Zm0-51.2a17.07,17.07,0,1,1-17.07,17.07A17.08,17.08,0,0,1,256,76.8Z" transform="translate(0 -34.13)"/></svg>