<svg id="Capa_1" data-name="Capa 1" xmlns="http://www.w3.org/2000/svg" viewBox="0 0 512 511.48"><defs><style>.cls-1{fill:#ff2476;}</style></defs><title>credit-card</title><path class="cls-1" d="M508.43,183.93,451.23,35.21A54.56,54.56,0,0,0,380.69,3.93l-1.22.49L93.62,122.91a54.3,54.3,0,0,0-30.17,69.49l7.86,21h-18A53.34,53.34,0,0,0,0,266.65V458.46a53.34,53.34,0,0,0,53.28,53.28h362.3a53.34,53.34,0,0,0,53.28-53.28V266.65a52.37,52.37,0,0,0-.77-8.63l9.9-4A54.76,54.76,0,0,0,508.43,183.93ZM53.28,230.42h362.3a36.18,36.18,0,0,1,36,34.1H17.26A36.18,36.18,0,0,1,53.28,230.42ZM139,179.07l57-28.5,11.71,29.3-57,28.49ZM451.81,458.46a36.27,36.27,0,0,1-36.23,36.23H53.28A36.27,36.27,0,0,1,17,458.46V349.77H451.81Zm0-125.74H17V281.57H451.81Zm19.79-94.45-8.91,3.61a53.31,53.31,0,0,0-47.11-28.5H178.78l43.52-21.76a8.53,8.53,0,0,0,4.11-10.79l-18.08-45.18a8.53,8.53,0,0,0-11.08-4.75q-.33.13-.65.29l-72.28,36.16a8.53,8.53,0,0,0-4.1,10.79l14.1,35.24H89.51L79.42,186.45a37.32,37.32,0,0,1,20.73-47.74L386,20.22a37.46,37.46,0,0,1,48.95,20.25q.19.45.36.9l57.2,148.72A37.64,37.64,0,0,1,471.6,238.27Z" transform="translate(0 -0.26)"/><path class="cls-1" d="M306.65,470.72a51.15,51.15,0,0,0,51.39,0,51.15,51.15,0,1,0,0-88.45,51.15,51.15,0,1,0-51.39,88.45Zm65.64-76.25a34.1,34.1,0,1,1,0,64A50.94,50.94,0,0,0,372.3,394.47ZM358,404.18a33.48,33.48,0,0,1,0,44.64A33.48,33.48,0,0,1,358,404.18Zm-25.57-11.78a33.74,33.74,0,0,1,11.32,2.08,50.94,50.94,0,0,0,0,64,34,34,0,1,1-11.32-66.12Z" transform="translate(0 -0.26)"/><rect class="cls-1" x="359.22" y="157.38" width="89" height="17.05" transform="translate(-32.58 178.03) rotate(-23.97)"/><rect class="cls-1" x="302.92" y="130.27" width="129.38" height="17.04" transform="translate(-24.33 166.57) rotate(-24.78)"/></svg>