<svg id="Layer_1" data-name="Layer 1" xmlns="http://www.w3.org/2000/svg" viewBox="0 0 512 393.09"><defs><style>.cls-1{fill:#ff2476;}</style></defs><title>delivery-truck</title><path class="cls-1" d="M509.47,300.92l-75.73-86.46a10.2,10.2,0,0,0-7.67-3.48H360.2V149.8A10.2,10.2,0,0,0,350,139.6H203.46A103,103,0,1,0,19.1,222.15V373.84H10.2a10.2,10.2,0,0,0,0,20.4h8.9v11.92a10.2,10.2,0,0,0,10.2,10.2H49.4a46.38,46.38,0,0,0,90.5,0H379.15a46.38,46.38,0,0,0,90.49,0H501.8a10.2,10.2,0,0,0,10.2-10.2V307.64A10.2,10.2,0,0,0,509.47,300.92ZM206,160H339.8V330.61H39.5v-87.1a103,103,0,0,0,166.53-81Q206,161.23,206,160ZM20.4,162.47A82.61,82.61,0,1,1,103,245.08,82.71,82.71,0,0,1,20.4,162.47ZM94.65,432.15a26,26,0,1,1,26-26A26,26,0,0,1,94.65,432.15ZM339.8,396H139.89a46.38,46.38,0,0,0-90.5,0H39.5V351H339.8V396Zm95.8-148.42,44.3,50.57H435.6ZM424.39,432.15a26,26,0,1,1,26-26A26,26,0,0,1,424.39,432.15ZM491.6,396h-22a46.38,46.38,0,0,0-90.49,0H360.2V231.38h55v76.93a10.2,10.2,0,0,0,10.2,10.2H491.6V396Z" transform="translate(0 -59.45)"/><path class="cls-1" d="M315.15,299.14H229.48a10.2,10.2,0,1,0,0,20.4h85.67a10.2,10.2,0,0,0,0-20.4Z" transform="translate(0 -59.45)"/><path class="cls-1" d="M197.87,299.14h-6.12a10.2,10.2,0,1,0,0,20.4h6.12a10.2,10.2,0,0,0,0-20.4Z" transform="translate(0 -59.45)"/><path class="cls-1" d="M132.66,177.69l-19.45-19.45v-57a10.2,10.2,0,1,0-20.4,0v61.2a10.2,10.2,0,0,0,3,7.21l22.44,22.44a10.2,10.2,0,0,0,14.42-14.42Z" transform="translate(0 -59.45)"/></svg>