<svg id="Capa_1" data-name="Capa 1" xmlns="http://www.w3.org/2000/svg" viewBox="0 0 450.36 512"><defs><style>.cls-1{fill:#fff;}</style></defs><title>factory</title><path class="cls-1" d="M472.23,496.09h-34.8V277.37a7.84,7.84,0,0,0-8-8H415.57l-21.87-136.2c-1-4-4-6-7-6H342c-4,0-7,3-7,6l-21.87,136.2H285.33V210.77c0-3-2-5-4-7-3-1-6-1-8,1L186.9,269.42V210.77c0-3-2-5-4-7-3-1-6-1-8,1L88.48,269.42H76.55a7.84,7.84,0,0,0-8,8V496.09H38.77a8,8,0,1,0,0,15.91H473.23a7.84,7.84,0,0,0,8-8C480.19,500.07,476.21,496.09,472.23,496.09ZM348,142.17h31.81l20.88,127.25H328.08Zm-77.55,83.51v43.74H211.76Zm-98.42,0v43.74H113.34Zm10.94,270.42H133.22V400.65h49.71Zm64.62,0H197.84V400.65h49.71Zm174,0H263.46V393.69a7.84,7.84,0,0,0-8-8H125.27a7.84,7.84,0,0,0-8,8V497.09H82.52V284.33h339V496.09Z" transform="translate(-30.82)"/><path class="cls-1" d="M393.69,35.79v-3a32.81,32.81,0,1,0-65.62,0v3c-6,6-11.93,14.91-11.93,23.86,0,9.94,6,17.9,14.91,23.86,0,8,3,14.91,8,20.88,3,3,7,3,10.94,1,3-3,3-7,1-10.94-3-3-4-7-4-11.93v-2a9,9,0,0,0-4-8c-7-4-11.93-8.95-11.93-12.92,0-5,5-9.94,11.93-13.92,3-2,5-5,4-8.95a10.81,10.81,0,0,1-1-5,17.9,17.9,0,1,1,35.79,0,10.81,10.81,0,0,1-1,5c-1,4,1,7,4,8.95,8,4,11.93,8.95,11.93,13.92s-4,9.94-11.93,12.92a6.76,6.76,0,0,0-4,8v2c0,5-2,9.94-6,12.92a7.8,7.8,0,0,0,0,10.94c1,2,3,2,5,2a7.59,7.59,0,0,0,5-2,32.36,32.36,0,0,0,9.94-22.87c9.94-6,14.91-14.91,14.91-23.86C409.6,49.71,403.63,41.76,393.69,35.79Z" transform="translate(-30.82)"/><path class="cls-1" d="M184.92,322.11H135.21a8,8,0,1,0,0,15.91h49.71a8,8,0,0,0,0-15.91Z" transform="translate(-30.82)"/><path class="cls-1" d="M268.43,322.11H218.72a8,8,0,0,0,0,15.91h49.71a7.84,7.84,0,0,0,8-8C275.39,326.09,272.4,322.11,268.43,322.11Z" transform="translate(-30.82)"/><path class="cls-1" d="M350.94,321.12H301.23a7.84,7.84,0,0,0-8,8c1,5,4,8,8,8h49.71a8,8,0,1,0,0-15.91Z" transform="translate(-30.82)"/><path class="cls-1" d="M367.84,385.74H298.25a7.84,7.84,0,0,0-8,8v51.7a7.84,7.84,0,0,0,8,8h69.59a7.84,7.84,0,0,0,8-8v-51.7C374.8,389.72,371.82,385.74,367.84,385.74Zm-8,51.7H305.21V400.65h54.68Z" transform="translate(-30.82)"/></svg>