<svg id="Layer_1" data-name="Layer 1" xmlns="http://www.w3.org/2000/svg" viewBox="0 0 512 435.03"><defs><style>.cls-1{fill:#bf404b;}</style></defs><title>free-delivery</title><path class="cls-1" d="M476.16,286.94l-13.26-53a8,8,0,0,0,6.35-7.84v-8.55a33.71,33.71,0,0,0-33.67-33.67H375.18V166.21a16.59,16.59,0,0,0-16.57-16.57H246.32l68.24-27.3a8,8,0,0,0-6-14.89L252.73,129.8c17-10.92,33.87-22.95,40.28-31.35a37.34,37.34,0,1,0-59.37-45.28c-9.12,12-21.16,45.57-28.95,69.26-7.79-23.68-19.83-57.3-28.95-69.26a37.34,37.34,0,1,0-59.37,45.28c6.41,8.41,23.26,20.43,40.28,31.35l-55.87-22.35a8,8,0,0,0-6,14.89l68.24,27.3H50.77A16.59,16.59,0,0,0,34.2,166.21V311.58a8,8,0,0,0,16,0V166.21a.53.53,0,0,1,.53-.53H358.61a.53.53,0,0,1,.53.53V311.58a8,8,0,1,0,16,0v-9.09H469.8a26.23,26.23,0,0,1,24.91,18.17H469.78a8,8,0,0,0-8,8v17.1a25.15,25.15,0,0,0,25.12,25.12H496v35.27H475a50.76,50.76,0,0,0-96,0h-3.86V345.78a8,8,0,0,0-16,0v60.39H192.82a50.76,50.76,0,0,0-96,0H50.77a.53.53,0,0,1-.53-.53V388H85a8,8,0,0,0,0-16H8a8,8,0,1,0,0,16H34.21v17.64a16.59,16.59,0,0,0,16.57,16.57h43.3c0,.18,0,.36,0,.53a50.77,50.77,0,1,0,101.54,0c0-.18,0-.36,0-.53H376.26c0,.18,0,.36,0,.53a50.77,50.77,0,0,0,101.54,0c0-.18,0-.36,0-.53H504a8,8,0,0,0,8-8V328.68A42.28,42.28,0,0,0,476.16,286.94ZM172.9,121.06c-31.62-19.65-41-28.69-43.78-32.33A21.3,21.3,0,0,1,163,62.89c7.76,10.17,19.9,44.39,27.92,69.05C185.5,128.76,179.28,125,172.9,121.06Zm45.57,10.88c8-24.66,20.16-58.88,27.92-69.05a21.3,21.3,0,0,1,33.88,25.83c-2.78,3.64-12.16,12.68-43.78,32.33C230.1,125,223.88,128.76,218.47,131.94Zm156.71,67.93h60.39a17.66,17.66,0,0,1,17.64,17.64V218h-78Zm0,86.58V234.08h71.23l13.09,52.38Zm-230.35,171a34.74,34.74,0,1,1,34.74-34.74A34.78,34.78,0,0,1,144.84,457.48Zm282.19,0a34.74,34.74,0,1,1,34.74-34.74A34.78,34.78,0,0,1,427,457.48ZM496,354.86h-9.09a9.1,9.1,0,0,1-9.09-9.09v-9.09H496v18.17Z" transform="translate(0 -38.49)"/><path class="cls-1" d="M144.84,406.17a16.57,16.57,0,1,0,16.57,16.57A16.59,16.59,0,0,0,144.84,406.17Z" transform="translate(0 -38.49)"/><path class="cls-1" d="M427,406.17a16.57,16.57,0,1,0,16.57,16.57A16.59,16.59,0,0,0,427,406.17Z" transform="translate(0 -38.49)"/><path class="cls-1" d="M333,372H213.24a8,8,0,0,0,0,16H333a8,8,0,0,0,0-16Z" transform="translate(0 -38.49)"/><path class="cls-1" d="M127.73,337.76H25.12a8,8,0,1,0,0,16H127.73a8,8,0,0,0,0-16Z" transform="translate(0 -38.49)"/><path class="cls-1" d="M127.73,218H93.53a8,8,0,0,0-8,8v68.41a8,8,0,0,0,16,0V268.28h17.64a8,8,0,0,0,0-16H101.54V234.08h26.19a8,8,0,0,0,0-16Z" transform="translate(0 -38.49)"/><path class="cls-1" d="M190.82,272a29.38,29.38,0,0,0-16.06-54H153.39a8,8,0,0,0-8,8v68.41a8,8,0,0,0,16,0V276.83h13.35l14.72,22.08A8,8,0,1,0,202.81,290ZM174.76,260.8H161.4V234.08h13.36a13.36,13.36,0,0,1,0,26.72Z" transform="translate(0 -38.49)"/><path class="cls-1" d="M256,286.46H229.81v-18.2l.53,0h17.1a8,8,0,0,0,0-16h-17.1l-.53,0v-18.2H256a8,8,0,0,0,0-16H221.79a8,8,0,0,0-8,8v68.41a8,8,0,0,0,8,8H256a8,8,0,1,0,0-16Z" transform="translate(0 -38.49)"/><path class="cls-1" d="M315.86,286.46H289.67V268.29h9.09a8,8,0,1,0,0-16h-9.09V234.08h26.19a8,8,0,1,0,0-16h-34.2a8,8,0,0,0-8,8v68.41a8,8,0,0,0,8,8h34.21a8,8,0,1,0,0-16Z" transform="translate(0 -38.49)"/></svg>