<svg id="Capa_1" data-name="Capa 1" xmlns="http://www.w3.org/2000/svg" viewBox="0 0 469.33 512"><defs><style>.cls-1{fill:#ff2476;}</style></defs><title>metro</title><path class="cls-1" d="M366.64,158a32,32,0,0,0-31.94-30H177.32a32.07,32.07,0,0,0-32,30l-6.7,108.63c0,29.7,89.81,32,117.33,32s117.33-2.3,117.31-32.66ZM256,277.33c-55.4,0-88.08-8-95.83-13l6.51-105a10.67,10.67,0,0,1,10.65-10H334.68a10.67,10.67,0,0,1,10.64,10l6.53,104.94C344.15,269.31,311.45,277.33,256,277.33Z" transform="translate(-21.33)"/><path class="cls-1" d="M160,320a32,32,0,1,0,32,32A32,32,0,0,0,160,320Zm0,42.67A10.67,10.67,0,1,1,170.67,352,10.68,10.68,0,0,1,160,362.67Z" transform="translate(-21.33)"/><path class="cls-1" d="M352,320a32,32,0,1,0,32,32A32,32,0,0,0,352,320Zm0,42.67A10.67,10.67,0,1,1,362.67,352,10.68,10.68,0,0,1,352,362.67Z" transform="translate(-21.33)"/><path class="cls-1" d="M288,341.33H224a10.67,10.67,0,0,0,0,21.33h64a10.67,10.67,0,0,0,0-21.33Z" transform="translate(-21.33)"/><path class="cls-1" d="M408,113.79A53.44,53.44,0,0,0,354.75,64H157.25A53.45,53.45,0,0,0,104,113.79L85.33,394.67C85.33,426.09,175.27,448,256,448s170.67-21.91,170.65-54.06ZM256,426.67c-86.76,0-144.9-23.55-149.35-31.3L125.33,115.2a32.06,32.06,0,0,1,31.92-29.87h197.5a32.06,32.06,0,0,1,31.92,29.87l18.88,278.29C400.9,403.11,342.76,426.67,256,426.67Z" transform="translate(-21.33)"/><path class="cls-1" d="M145.6,418.56a10.66,10.66,0,0,0-15,1.15l-64,74.67a10.67,10.67,0,1,0,16.21,13.89l64-74.67A10.67,10.67,0,0,0,145.6,418.56Z" transform="translate(-21.33)"/><path class="cls-1" d="M445.44,494.38l-64-74.67a10.67,10.67,0,0,0-16.21,13.89l64,74.67a10.67,10.67,0,0,0,16.21-13.89Z" transform="translate(-21.33)"/><path class="cls-1" d="M416,469.33H96a10.67,10.67,0,1,0,0,21.33H416a10.67,10.67,0,0,0,0-21.33Z" transform="translate(-21.33)"/><path class="cls-1" d="M373.33,426.67H138.67a10.67,10.67,0,1,0,0,21.33H373.33a10.67,10.67,0,1,0,0-21.33Z" transform="translate(-21.33)"/><path class="cls-1" d="M309.33,0H202.67C102.68,0,21.33,81.34,21.33,181.33v320a10.67,10.67,0,0,0,21.33,0v-320c0-88.24,71.76-160,160-160H309.33c88.23,0,160,71.76,160,160v320a10.67,10.67,0,0,0,21.33,0v-320C490.67,81.34,409.32,0,309.33,0Z" transform="translate(-21.33)"/><path class="cls-1" d="M256,64a42.67,42.67,0,1,0,42.67,42.67A42.71,42.71,0,0,0,256,64Zm0,64a21.33,21.33,0,1,1,21.33-21.33A21.35,21.35,0,0,1,256,128Z" transform="translate(-21.33)"/></svg>