<svg id="Layer_1" data-name="Layer 1" xmlns="http://www.w3.org/2000/svg" viewBox="0 0 512 467.73"><defs><style>.cls-1{fill:#bf404b;}</style></defs><title>moscow</title><path class="cls-1" d="M503.55,473H8.45a8.45,8.45,0,0,0,0,16.9h495.1a8.45,8.45,0,0,0,0-16.9Z" transform="translate(0 -22.13)"/><path class="cls-1" d="M85.62,328.56A8.45,8.45,0,0,0,77.18,337v15.77a8.45,8.45,0,1,0,16.9,0V337A8.45,8.45,0,0,0,85.62,328.56Z" transform="translate(0 -22.13)"/><path class="cls-1" d="M154.91,228.29a8.45,8.45,0,0,0-8.45,8.45v15.77a8.45,8.45,0,1,0,16.9,0V236.74A8.45,8.45,0,0,0,154.91,228.29Z" transform="translate(0 -22.13)"/><path class="cls-1" d="M154.91,279a8.45,8.45,0,0,0-8.45,8.45v15.77a8.45,8.45,0,1,0,16.9,0V287.44A8.45,8.45,0,0,0,154.91,279Z" transform="translate(0 -22.13)"/><path class="cls-1" d="M224.19,328.56a8.45,8.45,0,0,0-8.45,8.45v15.77a8.45,8.45,0,0,0,16.9,0V337A8.45,8.45,0,0,0,224.19,328.56Z" transform="translate(0 -22.13)"/><path class="cls-1" d="M340.79,165.21a25.35,25.35,0,1,0,25.35,25.35A25.38,25.38,0,0,0,340.79,165.21Zm0,33.8a8.45,8.45,0,1,1,8.45-8.45A8.46,8.46,0,0,1,340.79,199Z" transform="translate(0 -22.13)"/><path class="cls-1" d="M503.55,304.9a8.45,8.45,0,0,0,8.45-8.45v-18a8.45,8.45,0,1,0-16.9,0V288h-6v-9.58a8.45,8.45,0,1,0-16.9,0V288h-6v-9.58a8.45,8.45,0,1,0-16.9,0V288h-6v-9.58a8.45,8.45,0,1,0-16.9,0V288h-6v-9.58a8.45,8.45,0,1,0-16.9,0V288h-6.39V227.85a8.45,8.45,0,0,0-8.45-8.45H385.3V152.23a8.45,8.45,0,0,0-8.45-8.45h-.56V109.44a8.45,8.45,0,0,0-8.45-8.45h-1L348.59,54.75V33.83a8.45,8.45,0,0,0-16.9,0V54.75L313.46,101h-1a8.45,8.45,0,0,0-8.45,8.45v34.34h-.56a8.45,8.45,0,0,0-8.45,8.45V219.4h-3.2a8.45,8.45,0,0,0-8.45,8.45v166.7H271V312.91a34.87,34.87,0,0,0,6.76-20.4c0-29.12-16.87-40.13-30.42-49-5.39-3.52-10.52-6.88-14.64-11.14V217.59a8.45,8.45,0,0,0-16.9,0v14.79a59.49,59.49,0,0,1-9,7.38V206.33a8.45,8.45,0,0,0-8.45-8.45h-.09l-5.65-41.14a8.45,8.45,0,0,0-8.37-7.3h-2.44l-13.27-58a25.33,25.33,0,0,0-5.11-45.3V30.58a8.45,8.45,0,0,0-16.9,0V46.12a25.29,25.29,0,0,0-16.65,27.38,65,65,0,1,0-17.54,119.66l-.65,4.72h-.08a8.45,8.45,0,0,0-8.45,8.45v33.44a59.55,59.55,0,0,1-9-7.38V217.59a8.45,8.45,0,1,0-16.9,0v14.79c-4.12,4.25-9.25,7.61-14.64,11.14-13.56,8.85-30.42,19.87-30.42,49a34.88,34.88,0,0,0,6.76,20.4v128H8.45a8.45,8.45,0,0,0,0,16.9h495.1a8.45,8.45,0,1,0,0-16.9H408.2V403a8.45,8.45,0,0,0-8.45-8.45h-2.82V304.9H503.55ZM340.14,79.39l8.52,21.6h-17Zm-19.24,38.5h38.48v25.89H348.59v-5.07a8.45,8.45,0,1,0-16.9,0v5.07H320.9V117.89Zm-9,42.79h56.51V219.4H311.88Zm-11.65,75.62H380v26.92H372.9v-5.07a8.45,8.45,0,1,0-16.9,0v5.07h-7.89v-5.07a8.45,8.45,0,1,0-16.9,0v5.07h-7.89v-5.07a8.45,8.45,0,1,0-16.9,0v5.07h-6.2V236.29Zm0,43.82H380v81.11h-79.8Zm0,98H380v16.42h-79.8ZM260.8,292.51a17.31,17.31,0,0,1-2,7.89H247.9a77.78,77.78,0,0,0,.4-7.89c0-13.92-1.42-23.23-3.49-30.3C254.39,269,260.8,276.15,260.8,292.51Zm-36.61-36c4,7.59,7.21,15.32,7.21,36a60.33,60.33,0,0,1-.51,7.89h-13.4a60.33,60.33,0,0,1-.51-7.89C217,271.85,220.22,264.12,224.19,256.53Zm-43.05-58.66H128.68l1-7.32h50.45Zm-4.33-31.54,1,7.32H132l1-7.32ZM154.91,61.56A8.45,8.45,0,1,1,146.46,70,8.46,8.46,0,0,1,154.91,61.56Zm0,46.36,9.5,41.51h-19ZM97.33,178a48.16,48.16,0,1,1,41-73.38l-10.26,44.83h-2.44a8.45,8.45,0,0,0-8.37,7.3l-2.47,18A47.76,47.76,0,0,1,97.33,178ZM85.62,247.65a121.91,121.91,0,0,0,13.85,10c3.74,2.44,7.19,4.7,10.21,7.12-16-2.65-26.31-7.35-32.2-10.92A88.53,88.53,0,0,0,85.62,247.65ZM49,292.51c0-1,0-1.91.07-2.82a191.64,191.64,0,0,0,19,10.7H51A17.32,17.32,0,0,1,49,292.51Zm66.47,148.36H55.77V317.29h59.71Zm5.05-141c-31.49-5-56.72-20.45-66.43-27.13a36.41,36.41,0,0,1,8.4-8.64,67.62,67.62,0,0,0,12.21,7.58c12.79,6.3,28.48,10.17,46.67,11.53a46.83,46.83,0,0,1,.86,9.34A17.12,17.12,0,0,1,120.53,299.83Zm56.91,141H132.38V353.34h45.06Zm0-128v23.54H132.38V312.91a34.87,34.87,0,0,0,6.76-20.4c0-21.28-9-32.89-19.15-41.05V214.78h69.85v36.68c-10.14,8.16-19.15,19.77-19.15,41.05A34.88,34.88,0,0,0,177.44,312.91Zm10.14-20.4c0-16.36,6.41-23.51,16-30.3-2.07,7.07-3.49,16.38-3.49,30.3a78.06,78.06,0,0,0,.4,7.89H189.56A17.31,17.31,0,0,1,187.58,292.51ZM207.76,403v37.87H194.34V317.29H254v77.25H216.21A8.45,8.45,0,0,0,207.76,403ZM329,440.86H224.65V411.45H329Zm62.33,0H345.86V411.45H391.3Z" transform="translate(0 -22.13)"/><path class="cls-1" d="M434.54,329.68H425a8.45,8.45,0,0,0,0,16.9h9.51a8.45,8.45,0,0,0,0-16.9Z" transform="translate(0 -22.13)"/><path class="cls-1" d="M473.73,352.22h-9.51a8.45,8.45,0,0,0,0,16.9h9.51a8.45,8.45,0,0,0,0-16.9Z" transform="translate(0 -22.13)"/><path class="cls-1" d="M442.68,391.65h-9.51a8.45,8.45,0,1,0,0,16.9h9.51a8.45,8.45,0,0,0,0-16.9Z" transform="translate(0 -22.13)"/></svg>