<svg id="Capa_1" data-name="Capa 1" xmlns="http://www.w3.org/2000/svg" viewBox="0 0 512 512"><defs><style>.cls-1{fill:#bf404b;}</style></defs><title>recipe-book</title><path class="cls-1" d="M503.74,0H173.42c-5,0-8.26,3.3-8.26,8.26V198.19H57.81A57.45,57.45,0,0,0,0,256c0,20.65,10.74,39.64,28.08,49.55-27.25,16.52-36.34,52-19.82,79.28a56.93,56.93,0,0,0,19.82,19.82c-27.25,16.52-36.34,52-19.82,79.28C18.17,501.26,37.16,512,57.81,512H503.74c5,0,8.26-3.3,8.26-8.26V8.26C512,3.3,508.7,0,503.74,0ZM165.16,445.93H33v16.52H165.16v33H57.81a41.29,41.29,0,0,1,0-82.58H165.16Zm0-99.1H33v16.52H165.16v33H57.81a41.29,41.29,0,0,1,0-82.58H165.16Zm0-99.1H33v16.52H165.16v33H57.81a41.29,41.29,0,0,1,0-82.58H165.16Zm49.55,247.74h-33V479h33Zm0-33h-33V49.55h33Zm0-429.42h-33V16.52h33ZM495.48,495.48H231.23v-33H495.48Zm0-90.84H388.13V388.13H495.48Zm0-82.58H388.13V305.55H495.48Zm0-33H363.36a24.05,24.05,0,0,0-23.12,16.52H328.67A40.67,40.67,0,0,0,289,280.77c-23.12,0-41.29,14.86-41.29,33s18.17,33,41.29,33a40.67,40.67,0,0,0,39.64-24.77h11.56a24.05,24.05,0,0,0,23.12,16.52H495.48v33H363.36a24.05,24.05,0,0,0-23.12,16.52H329.5c-4.13-14.86-16.52-24.77-32.21-24.77H247.74v16.52h49.55c5.78,0,11.56,3.3,14,8.26H247.74v16.52h63.59c-3.3,5-8.26,8.26-14,8.26H247.74v16.52h49.55a33.46,33.46,0,0,0,32.21-24.77h10.74a24.05,24.05,0,0,0,23.12,16.52H495.48v24.77H231.23V16.52H495.48ZM371.61,305.55v16.52h-8.26c-5,0-8.26-3.3-8.26-8.26s3.3-8.26,8.26-8.26Zm-57.81,8.26c0,9.08-11.56,16.52-24.77,16.52s-24.77-7.43-24.77-16.52,11.56-16.52,24.77-16.52S313.81,304.72,313.81,313.81Zm57.81,74.32v16.52h-8.26c-5,0-8.26-3.3-8.26-8.26s3.3-8.26,8.26-8.26Z" transform="translate(0 0)"/><path class="cls-1" d="M478.14,115.61a41.49,41.49,0,0,0-60.28-28.08c-10.74-29.73-43.77-45.42-74.32-34.68a57.67,57.67,0,0,0-34.68,34.68,41.5,41.5,0,0,0-19.82-5,40.89,40.89,0,0,0-41.29,41.29,41.54,41.54,0,0,0,33,40.46V256c0,5,3.3,8.26,8.26,8.26H437.68c5,0,8.26-3.3,8.26-8.26V164.34A40.86,40.86,0,0,0,478.14,115.61ZM429.42,247.74H297.29V231.23H429.42Zm27.25-107.35c-5,5.78-11.56,9.08-19,8.26-5,0-8.26,3.3-8.26,8.26v57.81H297.29V156.9c0-5-3.3-8.26-8.26-8.26a24.77,24.77,0,1,1,0-49.55,24.69,24.69,0,0,1,19,9.08c3.3,3.3,8.26,4.13,11.56.83a7.5,7.5,0,0,0,2.48-5.78c2.48-22.3,22.3-39.64,45.42-37.16a40.65,40.65,0,0,1,37.16,37.16c.83,4.13,4.13,8.26,9.08,7.43a7.5,7.5,0,0,0,5.78-2.48,24,24,0,0,1,34.68-2.48C464.1,114.79,465.76,130.48,456.67,140.39Z" transform="translate(0 0)"/></svg>