<svg id="Layer_1" data-name="Layer 1" xmlns="http://www.w3.org/2000/svg" viewBox="0 0 510.17 512"><defs><style>.cls-1{fill:#fff;}</style></defs><title>rocket</title><path class="cls-1" d="M509.11,10.39A9.68,9.68,0,0,0,500.7,2,264.36,264.36,0,0,0,281.32,77.4l-64.49,64.49-93.09,12a9.68,9.68,0,0,0-5.61,2.75L28.38,246.41a9.68,9.68,0,0,0,5.08,16.36l67.86,12.57,13.33,13.33L86.27,304A9.68,9.68,0,0,0,84,319.39L191.69,427.05A9.68,9.68,0,0,0,207,424.82l15.37-28.39,13.33,13.33,12.57,67.86a9.68,9.68,0,0,0,16.36,5.08L354.44,393a9.68,9.68,0,0,0,2.75-5.6l12-93.09,64.49-64.49a265.85,265.85,0,0,0,63.06-101A265.86,265.86,0,0,0,509.11,10.39ZM102.8,255.93l-47.73-8.84,74.41-74.42,64.94-8.38ZM196.2,404.2l-89.31-89.31,22-11.94,79.2,79.2ZM338.41,381.6,264,456l-8.84-47.72,91.63-91.63ZM420,216.08,244.72,391.36l-125-125L295,91.09a246.38,246.38,0,0,1,90.69-57.4,115.8,115.8,0,0,0,91.71,91.71A246.44,246.44,0,0,1,420,216.08ZM483.23,106.8a96.53,96.53,0,0,1-78.94-78.94,246.91,246.91,0,0,1,86.43-7.49A246.88,246.88,0,0,1,483.23,106.8Z" transform="translate(-0.91 0)"/><path class="cls-1" d="M285.57,142.5a58.71,58.71,0,0,0,83,83h0a58.71,58.71,0,0,0-83-83Zm69.34,69.34a39.33,39.33,0,1,1,0-55.65A39.4,39.4,0,0,1,354.91,211.84Z" transform="translate(-0.91 0)"/><path class="cls-1" d="M126.92,386a9.68,9.68,0,0,0-13.69,0l-83,83a9.68,9.68,0,0,0,13.69,13.68l83-83A9.68,9.68,0,0,0,126.92,386Z" transform="translate(-0.91 0)"/><path class="cls-1" d="M139.69,412.46l-37.41,37.41A9.68,9.68,0,0,0,116,463.55l37.41-37.41a9.68,9.68,0,1,0-13.69-13.68Z" transform="translate(-0.91 0)"/><path class="cls-1" d="M89.19,467a9.68,9.68,0,1,0,8.93,6A9.77,9.77,0,0,0,89.19,467Z" transform="translate(-0.91 0)"/><path class="cls-1" d="M98.12,472.94c.25.58-.23-.58,0,0Z" transform="translate(-0.91 0)"/><path class="cls-1" d="M61.82,490.33l-5.15,5.15a9.68,9.68,0,0,0,13.68,13.69L75.5,504a9.68,9.68,0,0,0-13.68-13.69Z" transform="translate(-0.91 0)"/><path class="cls-1" d="M54.84,405.16a9.68,9.68,0,0,0-13.69,0L3.75,442.56a9.68,9.68,0,0,0,13.69,13.68l37.41-37.41A9.68,9.68,0,0,0,54.84,405.16Z" transform="translate(-0.91 0)"/><path class="cls-1" d="M70.28,401.44a9.67,9.67,0,1,0-10.42-4c-.08-.12-.14-.2,0,0s.11.15,0,0A9.79,9.79,0,0,0,70.28,401.44Z" transform="translate(-0.91 0)"/><path class="cls-1" d="M95.31,378.38l5.15-5.15a9.68,9.68,0,1,0-13.69-13.68l-5.15,5.15a9.68,9.68,0,0,0,13.69,13.68Z" transform="translate(-0.91 0)"/></svg>