<svg id="Capa_1" data-name="Capa 1" xmlns="http://www.w3.org/2000/svg" viewBox="0 0 512 511.96"><defs><style>.cls-1{fill:#bf404b;}</style></defs><title>time</title><path class="cls-1" d="M256,0C114.84,0,0,114.85,0,256S114.84,512,256,512,512,397.14,512,256,397.16,0,256,0Zm0,488.83C127.57,488.85,23.15,384.39,23.15,256S127.57,23.13,256,23.13,488.83,127.59,488.83,256,384.39,488.85,256,488.85Z" transform="translate(0 -0.02)"/><path class="cls-1" d="M177.05,87.54l-9.47-18.78L157.23,74l9.52,18.84C170.12,90.94,173.59,89.21,177.05,87.54Z" transform="translate(0 -0.02)"/><path class="cls-1" d="M69,259.86c0-3.92.36-7.74.57-11.6H43v23.21H69.54C69.31,267.61,69,263.79,69,259.86Z" transform="translate(0 -0.02)"/><path class="cls-1" d="M272.27,68.74V42.16H249.06V68.74c3.86-.23,7.68-.57,11.61-.57S268.43,68.51,272.27,68.74Z" transform="translate(0 -0.02)"/><path class="cls-1" d="M457.4,172.19l-5.25-10.34-21,10.66c1.79,3.42,3.52,6.88,5.06,10.46Z" transform="translate(0 -0.02)"/><path class="cls-1" d="M362.19,97.44c3.31,2.05,6.54,4.18,9.66,6.43l11.63-18.06-9.75-6.29Z" transform="translate(0 -0.02)"/><path class="cls-1" d="M78.19,146.79l19.09,13.15c2-3.31,4.07-6.6,6.29-9.77l-18.76-13Z" transform="translate(0 -0.02)"/><path class="cls-1" d="M339.57,434.48l14.18,28.1,10.36-5.25L350,429.46C346.62,431.27,343.1,432.88,339.57,434.48Z" transform="translate(0 -0.02)"/><path class="cls-1" d="M412.12,377.22l24.47,16.88,6.58-9.54L419,367.93C416.88,371.1,414.46,374.16,412.12,377.22Z" transform="translate(0 -0.02)"/><path class="cls-1" d="M451.85,248.26c.25,3.88.59,7.7.59,11.6s-.38,7.76-.59,11.61h26.56V248.26Z" transform="translate(0 -0.02)"/><path class="cls-1" d="M249.08,451v26.59h23.21V451c-3.84.27-7.68.61-11.58.61S252.94,451.23,249.08,451Z" transform="translate(0 -0.02)"/><path class="cls-1" d="M137.88,445.54l9.77,6.31,16.92-26.25c-3.36-2-6.71-3.9-9.9-6Z" transform="translate(0 -0.02)"/><path class="cls-1" d="M64,359.2l5.27,10.32,25.93-13.17c-2-3.35-3.84-6.73-5.57-10.19Z" transform="translate(0 -0.02)"/><polygon class="cls-1" points="268.85 88.89 252.52 88.89 252.52 248.41 252.52 255.98 252.52 266.23 155.95 372.2 158.52 374.54 252.62 271.28 377.07 271.28 377.07 248.41 268.85 248.41 268.85 88.89"/></svg>